HIERARCHY
ROOT hip
{
  OFFSET 0 0 0
  CHANNELS 6 Xposition Yposition Zposition Zrotation Yrotation Xrotation
  JOINT abdomen
  {
    OFFSET 0 20.6881 -0.73152
    CHANNELS 3 Zrotation Xrotation Yrotation
    JOINT chest
    {
      OFFSET 0 11.7043 -0.48768
      CHANNELS 3 Zrotation Xrotation Yrotation
      JOINT neck
      {
        OFFSET 0 22.1894 -2.19456
        CHANNELS 3 Zrotation Xrotation Yrotation
        JOINT head
        {
          OFFSET -0.24384 7.07133 1.2192
          CHANNELS 3 Zrotation Xrotation Yrotation
          JOINT leftEye
          {
            OFFSET 4.14528 8.04674 8.04672
            CHANNELS 3 Zrotation Xrotation Yrotation
            End Site
            {
              OFFSET 1 0 0
            }
          }
          JOINT rightEye
          {
            OFFSET -3.6576 8.04674 8.04672
            CHANNELS 3 Zrotation Xrotation Yrotation
            End Site
            {
              OFFSET 1 0 0
            }
          }
        }
      }
      JOINT rCollar
      {
        OFFSET -2.68224 19.2634 -4.8768
        CHANNELS 3 Zrotation Xrotation Yrotation
        JOINT rShldr
        {
          OFFSET -8.77824 -1.95073 1.46304
          CHANNELS 3 Zrotation Xrotation Yrotation
          JOINT rForeArm
          {
            OFFSET -28.1742 -1.7115 0.48768
            CHANNELS 3 Zrotation Xrotation Yrotation
            JOINT rHand
            {
              OFFSET -22.5879 0.773209 7.07136
              CHANNELS 3 Zrotation Xrotation Yrotation
              JOINT rThumb1
              {
                OFFSET -1.2192 -0.487915 3.41376
                CHANNELS 3 Zrotation Xrotation Yrotation
                JOINT rThumb2
                {
                  OFFSET -3.37035 -0.52449 3.41376
                  CHANNELS 3 Zrotation Xrotation Yrotation
                  End Site
                  {
                    OFFSET -1.78271 -1.18214 1.43049
                  }
                }
              }
              JOINT rIndex1
              {
                OFFSET -7.75947 0.938293 5.60832
                CHANNELS 3 Zrotation Xrotation Yrotation
                JOINT rIndex2
                {
                  OFFSET -2.54057 -0.884171 1.56538
                  CHANNELS 3 Zrotation Xrotation Yrotation
                  End Site
                  {
                    OFFSET -1.62519 -0.234802 1.16502
                  }
                }
              }
              JOINT rMid1
              {
                OFFSET -8.24714 1.18213 3.41376
                CHANNELS 3 Zrotation Xrotation Yrotation
                JOINT rMid2
                {
                  OFFSET -3.10165 -0.590103 1.0647
                  CHANNELS 3 Zrotation Xrotation Yrotation
                  End Site
                  {
                    OFFSET -2.48547 -0.328903 0.83742
                  }
                }
              }
              JOINT rRing1
              {
                OFFSET -8.82822 0.546677 1.51678
                CHANNELS 3 Zrotation Xrotation Yrotation
                JOINT rRing2
                {
                  OFFSET -2.60934 -0.819778 -0.0198488
                  CHANNELS 3 Zrotation Xrotation Yrotation
                  End Site
                  {
                    OFFSET -2.33842 -0.294052 0.168128
                  }
                }
              }
              JOINT rPinky1
              {
                OFFSET -8.27202 -0.0477905 -0.4584
                CHANNELS 3 Zrotation Xrotation Yrotation
                JOINT rPinky2
                {
                  OFFSET -1.82734 -0.647385 -0.700984
                  CHANNELS 3 Zrotation Xrotation Yrotation
                  End Site
                  {
                    OFFSET -1.69225 -0.51767 -0.607171
                  }
                }
              }
            }
          }
        }
      }
      JOINT lCollar
      {
        OFFSET 2.68224 19.2634 -4.8768
        CHANNELS 3 Zrotation Xrotation Yrotation
        JOINT lShldr
        {
          OFFSET 8.77824 -1.95073 1.46304
          CHANNELS 3 Zrotation Xrotation Yrotation
          JOINT lForeArm
          {
            OFFSET 28.1742 -1.7115 0.48768
            CHANNELS 3 Zrotation Xrotation Yrotation
            JOINT lHand
            {
              OFFSET 22.5879 0.773209 7.07136
              CHANNELS 3 Zrotation Xrotation Yrotation
              JOINT lThumb1
              {
                OFFSET 1.2192 -0.487915 3.41376
                CHANNELS 3 Zrotation Xrotation Yrotation
                JOINT lThumb2
                {
                  OFFSET 3.37035 -0.52449 3.41376
                  CHANNELS 3 Zrotation Xrotation Yrotation
                  End Site
                  {
                    OFFSET 1.78271 -1.18214 1.43049
                  }
                }
              }
              JOINT lIndex1
              {
                OFFSET 7.75947 0.938293 5.60832
                CHANNELS 3 Zrotation Xrotation Yrotation
                JOINT lIndex2
                {
                  OFFSET 2.54057 -0.884171 1.56538
                  CHANNELS 3 Zrotation Xrotation Yrotation
                  End Site
                  {
                    OFFSET 1.62519 -0.234802 1.16502
                  }
                }
              }
              JOINT lMid1
              {
                OFFSET 8.24714 1.18213 3.41376
                CHANNELS 3 Zrotation Xrotation Yrotation
                JOINT lMid2
                {
                  OFFSET 3.10165 -0.590103 1.0647
                  CHANNELS 3 Zrotation Xrotation Yrotation
                  End Site
                  {
                    OFFSET 2.48547 -0.328903 0.83742
                  }
                }
              }
              JOINT lRing1
              {
                OFFSET 8.82822 0.546677 1.51678
                CHANNELS 3 Zrotation Xrotation Yrotation
                JOINT lRing2
                {
                  OFFSET 2.60934 -0.819778 -0.0198488
                  CHANNELS 3 Zrotation Xrotation Yrotation
                  End Site
                  {
                    OFFSET 2.33842 -0.294052 0.168128
                  }
                }
              }
              JOINT lPinky1
              {
                OFFSET 8.27202 -0.0477905 -0.4584
                CHANNELS 3 Zrotation Xrotation Yrotation
                JOINT lPinky2
                {
                  OFFSET 1.82734 -0.647385 -0.700984
                  CHANNELS 3 Zrotation Xrotation Yrotation
                  End Site
                  {
                    OFFSET 1.69225 -0.51767 -0.607171
                  }
                }
              }
            }
          }
        }
      }
    }
  }
  JOINT rButtock
  {
    OFFSET -8.77824 4.35084 1.2192
    CHANNELS 3 Zrotation Xrotation Yrotation
    JOINT rThigh
    {
      OFFSET 0 -1.70687 -2.19456
      CHANNELS 3 Zrotation Xrotation Yrotation
      JOINT rShin
      {
        OFFSET 0 -36.8199 0.73152
        CHANNELS 3 Zrotation Xrotation Yrotation
        JOINT rFoot
        {
          OFFSET 0.73152 -45.1104 -5.12064
          CHANNELS 3 Zrotation Xrotation Yrotation
          End Site
          {
            OFFSET -1.1221 -3.69964 12.103
          }
        }
      }
    }
  }
  JOINT lButtock
  {
    OFFSET 8.77824 4.35084 1.2192
    CHANNELS 3 Zrotation Xrotation Yrotation
    JOINT lThigh
    {
      OFFSET 0 -1.70687 -2.19456
      CHANNELS 3 Zrotation Xrotation Yrotation
      JOINT lShin
      {
        OFFSET 0 -36.8199 0.73152
        CHANNELS 3 Zrotation Xrotation Yrotation
        JOINT lFoot
        {
          OFFSET -0.73152 -45.1104 -5.12064
          CHANNELS 3 Zrotation Xrotation Yrotation
          End Site
          {
            OFFSET 1.1221 -3.69964 12.103
          }
        }
      }
    }
  }
}
MOTION
Frames:	4
Frame Time:	0.00833333
-64.9289 84.1002 41.4126 0.0 0.0 0.0 -1.51926 -0.00282953 -0.0413934 -0.418698 0.00102592 -0.0725111 -2.60629e-14 7.95139e-16 7.70291e-16 -7.82404e-14 9.54166e-15 2.25807e-15 -0.0 0.0 0.0 -0.0 0.0 0.0 -1.29728e-14 -6.28967e-17 4.47265e-16 -2.72026e-13 -1.20513e-15 8.34896e-15 -4.70672e-12 1.36068e-12 1.81292e-13 -5.38664e-11 -1.63997e-12 1.5044e-12 -1.27066e-10 -6.11501e-13 3.6481e-12 -2.19447e-10 -1.05912e-12 6.30227e-12 -1.2706e-10 -6.10269e-13 3.63855e-12 7.73091 5.47488 0.417314 -1.27065e-10 -6.1166e-13 3.6481e-12 2.90554 0.965183 0.102902 -1.27061e-10 -6.10965e-13 3.64492e-12 10.2786 0.731801 0.0259123 -1.27075e-10 -6.08679e-13 3.65764e-12 2.22167 -0.733487 -0.20892 -1.30688e-14 -6.25085e-17 2.48481e-16 -2.75982e-13 -9.00743e-16 6.16232e-15 -4.7107e-12 -1.44695e-12 2.03556e-13 -5.38756e-11 1.17258e-12 1.4726e-12 -1.27085e-10 -6.01681e-13 3.6481e-12 -2.19462e-10 -1.04322e-12 6.30465e-12 -1.2709e-10 -6.03113e-13 3.64173e-12 -7.73091 5.47488 -0.417314 -1.27084e-10 -6.02019e-13 3.63855e-12 -2.90554 0.965183 -0.102902 -1.27089e-10 -6.01721e-13 3.64651e-12 -10.2786 0.731801 -0.0259123 -1.27077e-10 -5.99137e-13 3.64173e-12 -2.22167 -0.733487 0.20892 -2.03217e-16 0.0 -3.88251e-19 -0.640643 -1.92323 -0.00643456 -0.00925389 -2.07856 -0.0764212 -0.512041 3.99733 0.140295 2.03217e-16 0.0 3.88251e-19 -1.66984 -6.49781 0.154702 -0.00230986 6.20798 -0.0679765 0.534159 0.2855 -0.0665814
-64.529 82.269 36.0469 -105.018 85.0247 -89.2714 -0.600776 1.95573 0.824137 1.03325 0.379732 0.219437 0.437088 1.09948 -0.597691 -1.02916 7.69903 0.108311 -0.0 0.0 0.0 -0.0 0.0 0.0 -1.57508e-14 -1.1473e-13 7.24361e-15 23.9778 11.9144 6.80019 -4.72574 -2.25854 7.2564 0.354411 -13.2736 -1.68978 6.43066e-12 -1.53532e-10 -9.1598e-10 4.04049e-11 -1.96779e-10 -1.5714e-09 6.43666e-12 -1.5353e-10 -9.15988e-10 7.73091 5.47488 0.417314 6.43082e-12 -1.53531e-10 -9.15979e-10 2.90554 0.965183 0.102902 6.43481e-12 -1.5353e-10 -9.15982e-10 10.2786 0.731801 0.0259123 6.42257e-12 -1.53528e-10 -9.15972e-10 2.22167 -0.733487 -0.20892 -1.58617e-14 -1.14729e-13 6.9893e-15 -23.4675 22.7745 -8.30828 5.8072 -3.05686 -8.57004 -0.443043 -14.8606 1.84369 -5.33081e-10 -6.53946e-10 7.89748e-10 -9.48652e-10 -1.05738e-09 1.33997e-09 -5.33086e-10 -6.53946e-10 7.89745e-10 -7.73091 5.47488 -0.417314 -5.33079e-10 -6.53945e-10 7.89743e-10 -2.90554 0.965183 -0.102902 -5.33085e-10 -6.53944e-10 7.89748e-10 -10.2786 0.731801 -0.0259123 -5.33075e-10 -6.53942e-10 7.89743e-10 -2.22167 -0.733487 0.20892 -2.03217e-16 0.0 -3.88251e-19 -2.1264 -9.38279 -0.0243185 -0.0214066 3.04958 -0.00641918 -0.47091 3.3533 -2.20936 2.03217e-16 0.0 3.88251e-19 2.3792 -13.74 0.591029 -0.0279546 10.989 -0.169334 0.356135 -0.912961 -0.306458
-64.537 82.2683 36.0501 -104.049 85.0445 -88.2582 0.311765 4.02264 1.74288 2.56508 0.78014 0.528364 0.919849 2.26287 -1.23191 -2.14772 15.8355 0.226806 -0.0 0.0 0.0 -0.0 0.0 0.0 -1.83823e-14 -2.46251e-13 1.59618e-14 46.019 23.9374 15.0023 -9.10352 -4.52442 14.9615 -0.218551 -27.2671 -3.80692 1.5111e-10 -3.19112e-10 -1.91823e-09 3.22188e-10 -4.07848e-10 -3.29081e-09 1.51116e-10 -3.1911e-10 -1.91823e-09 7.73091 5.47488 0.417314 1.5111e-10 -3.1911e-10 -1.91822e-09 2.90554 0.965183 0.102902 1.51114e-10 -3.1911e-10 -1.91823e-09 10.2786 0.731801 0.0259123 1.51103e-10 -3.19108e-10 -1.91822e-09 2.22167 -0.733487 -0.20892 -1.85059e-14 -2.46247e-13 1.56481e-14 -38.5476 45.013 -22.5762 10.9629 -6.06033 -17.7068 0.279693 -30.5119 4.25568 -9.78428e-10 -1.36458e-09 1.64578e-09 -1.74826e-09 -2.20582e-09 2.79218e-09 -9.78433e-10 -1.36458e-09 1.64578e-09 -7.73091 5.47488 -0.417314 -9.78425e-10 -1.36458e-09 1.64578e-09 -2.90554 0.965183 -0.102902 -9.78433e-10 -1.36458e-09 1.64578e-09 -10.2786 0.731801 -0.0259123 -9.78424e-10 -1.36458e-09 1.64577e-09 -2.22167 -0.733487 0.20892 -2.03217e-16 0.0 -3.88251e-19 -3.70108 -17.2665 -0.0478576 -0.0479721 8.4695 0.0682597 -0.48513 2.66752 -4.69277 2.03217e-16 0.0 3.88251e-19 6.7894 -21.3958 1.09027 -0.0358377 16.0436 -0.281455 0.15709 -2.17878 -0.560054
-64.5463 82.269 36.0397 -103.738 85.1071 -87.9026 1.05794 5.86761 2.56722 3.92555 1.13704 0.803476 1.38016 3.29699 -1.79572 -3.18129 23.0968 0.350065 -0.0 0.0 0.0 -0.0 0.0 0.0 -2.13067e-14 -3.44065e-13 2.08363e-14 62.241 33.5275 24.172 -12.4981 -6.34184 21.893 -1.87661 -39.6605 -6.41443 2.73423e-10 -4.59372e-10 -2.75524e-09 5.60109e-10 -5.88219e-10 -4.72679e-09 2.7343e-10 -4.59369e-10 -2.75524e-09 7.73091 5.47488 0.417314 2.73423e-10 -4.59369e-10 -2.75523e-09 2.90554 0.965183 0.102902 2.73427e-10 -4.59369e-10 -2.75524e-09 10.2786 0.731801 0.0259123 2.73418e-10 -4.59368e-10 -2.75523e-09 2.22167 -0.733487 -0.20892 -2.14474e-14 -3.44061e-13 2.04709e-14 -34.677 59.2499 -49.7506 14.7564 -8.3515 -25.9688 2.50207 -44.3585 7.48762 -1.34507e-09 -1.96063e-09 2.36195e-09 -2.40703e-09 -3.17005e-09 4.00729e-09 -1.34508e-09 -1.96063e-09 2.36195e-09 -7.73091 5.47488 -0.417314 -1.34507e-09 -1.96063e-09 2.36195e-09 -2.90554 0.965183 -0.102902 -1.34508e-09 -1.96063e-09 2.36195e-09 -10.2786 0.731801 -0.0259123 -1.34507e-09 -1.96063e-09 2.36195e-09 -2.22167 -0.733487 0.20892 -2.03217e-16 0.0 -3.88251e-19 -5.11316 -24.3019 -0.0648653 -0.0838552 13.3058 0.137194 -0.547103 2.05768 -6.90109 2.03217e-16 0.0 3.88251e-19 10.8506 -28.2171 1.6058 -0.0250902 20.5508 -0.388239 -0.0300611 -3.30961 -0.787411
